<svg width="152" height="152" fill="none" xmlns="http://www.w3.org/2000/svg"><path fill="#EEE" d="M0 0h152v152H0z"/><path d="M71.2 25.4C77 37 59.5 44.9 51.5 36.2c-3.3-3.7-1.8-11 6.3-14.8 4-2 9.6-3.9 13.4 4zm35.6-5.2C112.9 33 94 41.6 85.3 32c-3.6-4-2-11.9 6.8-16.1 4.4-2.2 10.6-4.2 14.7 4.3z" fill="#000"/><path fill-rule="evenodd" clip-rule="evenodd" d="M70.4 128.7c12.9 1.5 26.3-2.6 31.4-10.9 4.4-7 .8-9.4-4.2-3.8-10.6 12.3-21.6 6.8-26.3-5.6l1.2-.4C95 99 109 74.5 100.1 60.6 88 41.5 49.7 58.6 45 85.4c-4.3 24.7 7 41.3 25.5 43.3zm13.8-66.8c3.8 6.2-.8 28.2-14.7 38.1-.4-3-.4-6.4-.2-10 2.8-24.4 10.8-34.5 14.9-28z" fill="#000"/></svg>
